<?xml version="1.0" standalone="no"?>
<svg xmlns:xlink="http://www.w3.org/1999/xlink"
     id="wave"
     style="transform:rotate(0deg); transition: 0.3s"
     viewBox="0 0 1440 260" version="1.1"
     xmlns="http://www.w3.org/2000/svg">
    <defs>
        <linearGradient id="sw-gradient-0" x1="0" x2="0" y1="1" y2="0">
            <stop stop-color="rgba(243, 106, 62, 1)" offset="0%"/>
            <stop stop-color="rgba(33.635, 134.741, 150.588, 1)" offset="100%"/>
        </linearGradient>
    </defs>
    <path style="transform:translate(0, 0px); opacity:1" fill="url(#sw-gradient-0)" d="M0,78L21.8,69.3C43.6,61,87,43,131,47.7C174.5,52,218,78,262,99.7C305.5,121,349,139,393,138.7C436.4,139,480,121,524,104C567.3,87,611,69,655,60.7C698.2,52,742,52,785,82.3C829.1,113,873,173,916,203.7C960,234,1004,234,1047,221C1090.9,208,1135,182,1178,151.7C1221.8,121,1265,87,1309,86.7C1352.7,87,1396,121,1440,151.7C1483.6,182,1527,208,1571,216.7C1614.5,225,1658,217,1702,212.3C1745.5,208,1789,208,1833,208C1876.4,208,1920,208,1964,182C2007.3,156,2051,104,2095,73.7C2138.2,43,2182,35,2225,65C2269.1,95,2313,165,2356,169C2400,173,2444,113,2487,73.7C2530.9,35,2575,17,2618,21.7C2661.8,26,2705,52,2749,65C2792.7,78,2836,78,2880,82.3C2923.6,87,2967,95,3011,108.3C3054.5,121,3098,139,3120,147.3L3141.8,156L3141.8,260L3120,260C3098.2,260,3055,260,3011,260C2967.3,260,2924,260,2880,260C2836.4,260,2793,260,2749,260C2705.5,260,2662,260,2618,260C2574.5,260,2531,260,2487,260C2443.6,260,2400,260,2356,260C2312.7,260,2269,260,2225,260C2181.8,260,2138,260,2095,260C2050.9,260,2007,260,1964,260C1920,260,1876,260,1833,260C1789.1,260,1745,260,1702,260C1658.2,260,1615,260,1571,260C1527.3,260,1484,260,1440,260C1396.4,260,1353,260,1309,260C1265.5,260,1222,260,1178,260C1134.5,260,1091,260,1047,260C1003.6,260,960,260,916,260C872.7,260,829,260,785,260C741.8,260,698,260,655,260C610.9,260,567,260,524,260C480,260,436,260,393,260C349.1,260,305,260,262,260C218.2,260,175,260,131,260C87.3,260,44,260,22,260L0,260Z"/>
</svg>