<!DOCTYPE svg PUBLIC "-//W3C//DTD SVG 1.1//EN" "http://www.w3.org/Graphics/SVG/1.1/DTD/svg11.dtd">
<!-- Uploaded to: SVG Repo, www.svgrepo.com, Transformed by: SVG Repo Mixer Tools -->
<svg version="1.1" id="Layer_1" xmlns="http://www.w3.org/2000/svg" xmlns:xlink="http://www.w3.org/1999/xlink" viewBox="0 0 473.931 473.931" xml:space="preserve" width="800px" height="800px" fill="#000000">
<g id="SVGRepo_bgCarrier" stroke-width="0"/>
<g id="SVGRepo_tracerCarrier" stroke-linecap="round" stroke-linejoin="round"/>
<g id="SVGRepo_iconCarrier"> <circle style="fill:#7c37b3;" cx="236.966" cy="236.966" r="236.966"/> <path style="fill:#202121;" d="M327.539,371.957c0,21.758-7.79,29.549-29.552,29.549h-118.21c-21.755,0-29.552-7.79-29.552-29.549 V96.133c0-21.758,7.798-29.549,29.552-29.549h118.21c21.762,0,29.552,7.79,29.552,29.549V371.957z"/> <path d="M257.28,77.795c0,1.246-1.463,2.245-3.259,2.245h-28.883c-1.804,0-3.267-0.999-3.267-2.245l0,0 c0-1.235,1.463-2.241,3.267-2.241h28.883C255.817,75.557,257.28,76.56,257.28,77.795L257.28,77.795z"/> <circle cx="262.11" cy="77.96" r="2.462"/> <circle cx="268.666" cy="77.96" r="2.462"/> <circle cx="292.269" cy="78.989" r="3.311"/> <path style="fill:none;stroke:#121212;stroke-miterlimit:10;" d="M256.876,385.596c0,3.338-2.032,6.043-4.539,6.043h-26.63 c-2.499,0-4.531-2.709-4.531-6.043v-4.288c0-3.341,2.032-6.043,4.531-6.043h26.63c2.507,0,4.539,2.705,4.539,6.043V385.596z"/> <linearGradient id="SVGID_1_" gradientUnits="userSpaceOnUse" x1="13.8675" y1="565.3661" x2="13.8675" y2="493.8462" gradientTransform="matrix(3.7418 0 0 -3.7418 186.5716 2214.0598)"> <stop offset="0" style="stop-color:#5978BA"/> <stop offset="0.703" style="stop-color:#4E9DB8"/> <stop offset="1" style="stop-color:#379CC9"/> </linearGradient> <rect x="158.426" y="98.595" style="fill:url(#SVGID_1_);" width="160.069" height="267.611"/> <g> <circle style="fill:#FFFFFF;" cx="238.829" cy="304.13" r="4.513"/> <circle style="fill:#FFFFFF;" cx="255.263" cy="304.13" r="2.874"/> <circle style="fill:#FFFFFF;" cx="268.359" cy="304.13" r="2.874"/> <circle style="fill:#FFFFFF;" cx="209.277" cy="304.13" r="2.877"/> <circle style="fill:#FFFFFF;" cx="222.41" cy="304.13" r="2.874"/> </g> <rect x="158.426" y="98.595" style="opacity:0.5;fill:#202121;enable-background:new ;" width="159.998" height="13.414"/> <g> <circle style="fill:#FFFFFF;" cx="294.514" cy="104.882" r="3.416"/> <circle style="fill:#FFFFFF;" cx="166.639" cy="104.882" r="3.416"/> <circle style="fill:#FFFFFF;" cx="310.091" cy="104.882" r="3.416"/> </g> <path style="fill:#B5DBAF;" d="M197.644,279.536c0,3.046-2.47,5.515-5.519,5.515h-16.108c-3.053,0-5.527-2.466-5.527-5.515v-16.112 c0-3.053,2.47-5.527,5.527-5.527h16.108c3.046,0,5.519,2.47,5.519,5.527V279.536z"/> <path style="fill:#F6A2A3;" d="M234.178,279.536c0,3.046-2.477,5.515-5.527,5.515h-16.101c-3.053,0-5.527-2.466-5.527-5.515v-16.112 c0-3.053,2.47-5.527,5.527-5.527h16.101c3.046,0,5.527,2.47,5.527,5.527V279.536z"/> <path style="fill:#67B8CB;" d="M270.705,279.536c0,3.046-2.47,5.515-5.519,5.515h-16.108c-3.046,0-5.527-2.466-5.527-5.515v-16.112 c0-3.053,2.477-5.527,5.527-5.527h16.108c3.046,0,5.519,2.47,5.519,5.527V279.536z"/> <path style="fill:#F5E554;" d="M307.236,279.536c0,3.046-2.477,5.515-5.527,5.515h-16.108c-3.053,0-5.519-2.466-5.519-5.515v-16.112 c0-3.053,2.462-5.527,5.519-5.527h16.108c3.046,0,5.527,2.47,5.527,5.527V279.536z"/> <path style="fill:none;stroke:#67B8CB;stroke-width:0.5;stroke-miterlimit:10;" d="M306.821,233.568 c0,3.042-2.462,5.512-5.519,5.512H176.839c-3.046,0-5.527-2.466-5.527-5.512v-6.264c0-3.05,2.477-5.523,5.527-5.523h124.466 c3.053,0,5.519,2.47,5.519,5.523v6.264H306.821z"/> <g> <circle style="fill:#DBF0F5;" cx="293.953" cy="228.696" r="4.097"/> <path style="fill:#DBF0F5;" d="M301.376,236.172c-0.322,0.318-0.935,0.228-1.366-0.21l-4.61-4.61 c-0.423-0.427-0.52-1.036-0.206-1.358l0.408-0.408c0.322-0.326,0.935-0.228,1.373,0.21l4.602,4.602 c0.43,0.434,0.528,1.044,0.198,1.366L301.376,236.172z"/> </g> <path style="fill:#67B8CB;" d="M191.372,341.196c0,2.477-2.009,4.49-4.494,4.49H173.76c-2.485,0-4.494-2.013-4.494-4.49V328.07 c0-2.481,2.009-4.494,4.494-4.494h13.119c2.485,0,4.494,2.013,4.494,4.494V341.196z"/> <path style="fill:#F5E554;" d="M221.131,341.196c0,2.477-2.024,4.49-4.501,4.49h-13.119c-2.485,0-4.494-2.013-4.494-4.49V328.07 c0-2.481,2.009-4.494,4.494-4.494h13.119c2.477,0,4.501,2.013,4.501,4.494V341.196z"/> <path style="fill:#B5DBAF;" d="M250.878,341.196c0,2.477-2.017,4.49-4.494,4.49h-13.119c-2.477,0-4.501-2.013-4.501-4.49V328.07 c0-2.481,2.024-4.494,4.501-4.494h13.119c2.477,0,4.494,2.013,4.494,4.494V341.196z"/> <path style="fill:#D3D4E3;" d="M280.628,341.196c0,2.477-2.009,4.49-4.494,4.49h-13.119c-2.492,0-4.494-2.013-4.494-4.49V328.07 c0-2.481,2.002-4.494,4.494-4.494h13.119c2.485,0,4.494,2.013,4.494,4.494V341.196z"/> <path style="fill:#F6A2A3;" d="M310.181,341.196c0,2.477-2.017,4.49-4.494,4.49h-13.119c-2.492,0-4.494-2.013-4.494-4.49V328.07 c0-2.481,2.002-4.494,4.494-4.494h13.119c2.477,0,4.494,2.013,4.494,4.494L310.181,341.196L310.181,341.196z"/> <path style="fill:#6CC077;" d="M176.839,209.527h124.466c3.053,0,5.519-2.47,5.519-5.515v-20.015l-10.305-10.305 c0,0-5.852-7.547-11.293-7.24c-4.898,0.281-10.612,6.41-11.708,7.622l-6.855-6.855c0,0-6.855-8.842-13.227-8.49 c-6.387,0.367-13.994,9.25-13.994,9.25l-2.092,2.088l-12.898-12.902c0,0-8.434-10.866-16.269-10.425s-17.197,11.352-17.197,11.352 l-19.674,19.667v26.252C171.313,207.058,173.79,209.527,176.839,209.527z"/> <path style="fill:#DBF0F5;" d="M208.184,146.744c7.835-0.442,16.269,10.425,16.269,10.425l12.898,12.902l2.092-2.088 c0,0,7.607-8.883,13.994-9.25c6.372-0.355,13.227,8.49,13.227,8.49l6.855,6.855c1.096-1.212,6.81-7.341,11.708-7.622 c5.437-0.307,11.293,7.24,11.293,7.24l10.305,10.305v-51.917c0-3.05-2.462-5.527-5.519-5.527H176.839 c-3.046,0-5.527,2.473-5.527,5.527v45.679l19.674-19.667C190.987,158.097,200.349,147.186,208.184,146.744z"/> </g>
</svg>