<?xml version="1.0" encoding="UTF-8" standalone="no"?>
<!-- Created with Inkscape (http://www.inkscape.org/) -->

<svg
   version="1.1"
   preserveAspectRatio="none"
   id="svg2"
   xml:space="preserve"
   width="550"
   height="1200"
   viewBox="0 0 2463.6973 4852.0806"
   sodipodi:docname="1569924421-vector.svg"
   xmlns:inkscape="http://www.inkscape.org/namespaces/inkscape"
   xmlns:sodipodi="http://sodipodi.sourceforge.net/DTD/sodipodi-0.dtd"
   xmlns="http://www.w3.org/2000/svg"
   xmlns:svg="http://www.w3.org/2000/svg"><defs
     id="defs6" /><sodipodi:namedview
     id="namedview4"
     pagecolor="#ffffff"
     bordercolor="#666666"
     borderopacity="1.0"
     inkscape:pageshadow="2"
     inkscape:pageopacity="0.0"
     inkscape:pagecheckerboard="0"
     inkscape:showpageshadow="0"
     inkscape:deskcolor="#d1d1d1"
     showgrid="false" /><g
     id="g7532"
     transform="matrix(0.25340061,0,0,-0.25370666,-1431.602,5092.7067)"
     inkscape:export-filename="smartphone_mockup1.svg"
     inkscape:export-xdpi="96"
     inkscape:export-ydpi="96"><path
       d="m 15257.1,16300 v 0 c 63.3,0 115,-51.7 115,-115 v -2644.1 c 0,-63.2 -51.7,-115 -115,-115 v 0 c -2.3,0 -4.6,0.1 -6.9,0.2 v 2873.7 c 2.3,0.1 4.6,0.2 6.9,0.2 v 0"
       style="fill:#4e4e4e;fill-opacity:1;fill-rule:evenodd;stroke:none"
       id="path7534" /></g><g
     id="g7536"
     transform="matrix(0.3120591,0,0,-0.31243599,-1431.602,5092.7067)"><path
       d="m 10214.4,15955.5 c 0,-286.6 -232.33,-518.9 -518.94,-518.9 v 0 H 7374.69 v 0 c -286.61,0 -518.93,232.3 -518.93,518.9 h -1098.3 c -413.61,0 -752.02,-338.4 -752.02,-752 V 1866.66 c 0,-413.65 338.41,-752.02 752.02,-752.02 h 5555.24 c 413.6,0 752,338.37 752,752.02 V 15203.5 c 0,413.6 -338.4,752 -752,752 z m 992,344.5 H 5863.77 c -647.43,0 -1177.2,-529.7 -1177.2,-1177.2 V 14783 h 40.97 v -113.4 h -40.97 V 2400.53 h 40.97 v -113.34 h -40.97 v -339.83 c 0,-647.51 529.77,-1177.198 1177.2,-1177.198 h 2467.1 c 63.25,0 131.32,18.309 204.21,18.309 72.88,0 140.95,-18.309 204.2,-18.309 h 2467.12 c 647.4,0 1177.2,529.688 1177.2,1177.198 v 339.83 h -41 v 113.34 h 41 V 14669.6 h -41 v 113.4 h 41 v 339.8 c 0,647.5 -529.8,1177.2 -1177.2,1177.2 v 0"
       style="fill:#505050;fill-opacity:1;fill-rule:evenodd;stroke:none"
       id="path7538" /></g><g
     id="g7540"
     transform="matrix(0.3120591,0,0,-0.31243599,-1431.602,5092.7067)"><path
       d="m 11134.3,16300 h 72.1 c 647.5,0 1177.2,-529.7 1177.2,-1177.2 V 14783 h -41 v -113.4 h 41 V 2400.53 h -41 v -113.34 h 41 v -339.83 c 0,-647.51 -529.7,-1177.198 -1177.2,-1177.198 H 8739.28 c -63.25,0 -131.32,18.309 -204.2,18.309 -72.89,0 -140.96,-18.309 -204.21,-18.309 h -2467.1 c -647.43,0 -1177.2,529.688 -1177.2,1177.198 v 339.83 h 40.97 v 113.34 h -40.97 v 2731.61 l 318.91,552.35 V 1866.66 c 0,-413.65 338.37,-752.02 751.98,-752.02 h 5555.24 c 413.6,0 752,338.37 752,752.02 V 15203.5 c 0,413.6 -338.4,752 -752,752 h -377.3 l 198.9,344.5 v 0"
       style="fill:#323232;fill-opacity:1;fill-rule:evenodd;stroke:none"
       id="path7542" /></g><g
     id="g7544"
     transform="matrix(0.25340061,0,0,-0.25370666,-1431.602,5092.7067)"><path
       d="m 5764.5,16300 v 0 c -63.22,0 -114.94,-51.7 -114.94,-115 v -1124.9 c 0,-63.3 51.72,-115 114.94,-115 v 0 c 2.36,0 4.62,0.1 6.94,0.2 v 1354.5 c -2.32,0.1 -4.58,0.2 -6.94,0.2 v 0"
       style="fill:#4e4e4e;fill-opacity:1;fill-rule:evenodd;stroke:none"
       id="path7546" /></g><g
     id="g7548"
     transform="matrix(0.22991165,0,0,-0.23018933,-1431.602,5092.7067)"><path
       d="m 6353.42,16300 v 0 c -69.68,0 -126.67,-57.1 -126.67,-126.7 v -1239.9 c 0,-69.7 56.99,-126.8 126.67,-126.8 v 0 c 2.61,0 5.1,0.1 7.65,0.3 v 1492.9 c -2.55,0.1 -5.04,0.2 -7.65,0.2 v 0"
       style="fill:#4e4e4e;fill-opacity:1;fill-rule:evenodd;stroke:none"
       id="path7550" /></g><g
     id="g7552"
     transform="matrix(0.30243606,0,0,-0.30280133,-1431.602,5092.7067)"><path
       d="m 8806.66,16300 c 57.73,0 104.53,-46.8 104.53,-104.5 0,-57.8 -46.8,-104.5 -104.53,-104.5 -57.73,0 -104.54,46.7 -104.54,104.5 0,57.7 46.81,104.5 104.54,104.5 v 0"
       style="fill:#000000;fill-opacity:1;fill-rule:evenodd;stroke:none"
       id="path7554" /></g><g
     id="g7556"
     transform="matrix(0.30209647,0,0,-0.30246133,-1431.602,5092.7067)"><path
       d="m 8816.56,16300 c 47.65,0 86.31,-38.6 86.31,-86.3 0,-47.7 -38.66,-86.3 -86.31,-86.3 -47.66,0 -86.31,38.6 -86.31,86.3 0,47.7 38.65,86.3 86.31,86.3 v 0"
       style="fill:#171717;fill-opacity:1;fill-rule:evenodd;stroke:none"
       id="path7558" /></g><g
     id="g7560"
     transform="matrix(0.30200325,0,0,-0.30236799,-1431.602,5092.7067)"><path
       d="m 8819.29,16300 c 44.89,0 81.31,-36.4 81.31,-81.3 0,-44.9 -36.42,-81.3 -81.31,-81.3 -44.89,0 -81.31,36.4 -81.31,81.3 0,44.9 36.42,81.3 81.31,81.3 v 0"
       style="fill:#303030;fill-opacity:1;fill-rule:evenodd;stroke:none"
       id="path7562" /></g><g
     id="g7564"
     transform="matrix(0.30189804,0,0,-0.30226266,-1431.602,5092.7067)"><path
       d="m 8822.36,16300 c 41.77,0 75.65,-33.9 75.65,-75.7 0,-41.7 -33.88,-75.6 -75.65,-75.6 -41.78,0 -75.66,33.9 -75.66,75.6 0,41.8 33.88,75.7 75.66,75.7 v 0"
       style="fill:#373737;fill-opacity:1;fill-rule:evenodd;stroke:none"
       id="path7566" /></g><g
     id="g7568"
     transform="matrix(0.3016863,0,0,-0.30205066,-1431.602,5092.7067)"><path
       d="m 8828.55,16300 c 35.5,0 64.28,-28.8 64.28,-64.3 0,-35.4 -28.78,-64.2 -64.28,-64.2 -35.49,0 -64.27,28.8 -64.27,64.2 0,35.5 28.78,64.3 64.27,64.3 v 0"
       style="fill:#0c0c26;fill-opacity:1;fill-rule:evenodd;stroke:none"
       id="path7570" /></g><g
     id="g7572"
     transform="matrix(0.30145058,0,0,-0.30181466,-1431.602,5092.7067)"><path
       d="m 8873.77,16300 c 19.84,-14.7 29.47,-39.5 24.83,-63.7 -4.64,-24.3 -22.75,-43.7 -46.56,-50.1 -23.86,-6.3 -49.26,1.5 -65.34,20.2 6.93,-0.8 13.87,-0.6 20.63,0.4 7.99,-5.4 17.67,-8.6 28.1,-8.6 27.74,0 50.18,22.5 50.18,50.2 0,11.7 -3.97,22.4 -10.69,31 0.49,6.8 0.13,13.7 -1.15,20.6 v 0"
       style="fill:#000102;fill-opacity:1;fill-rule:evenodd;stroke:none"
       id="path7574" /></g><g
     id="g7576"
     transform="matrix(0.30130809,0,0,-0.30167199,-1431.602,5092.7067)"><path
       d="m 8814.04,16300 c 7.11,0 12.86,-5.7 12.86,-12.8 0,-7.1 -5.75,-12.9 -12.86,-12.9 -7.07,0 -12.82,5.8 -12.82,12.9 0,7.1 5.75,12.8 12.82,12.8 v 0"
       style="fill:#18295b;fill-opacity:1;fill-rule:evenodd;stroke:none"
       id="path7578" /></g><g
     id="g7580"
     transform="matrix(0.3009352,0,0,-0.30129866,-1431.602,5092.7067)"><path
       d="m 8850.57,16300 c 13.14,0 23.76,-10.6 23.76,-23.8 0,-13.1 -10.62,-23.7 -23.76,-23.7 -13.1,0 -23.76,10.6 -23.76,23.7 0,13.2 10.66,23.8 23.76,23.8 v 0"
       style="fill:#18295b;fill-opacity:1;fill-rule:evenodd;stroke:none"
       id="path7582" /></g><g
     id="g7584"
     transform="matrix(0.30083932,0,0,-0.30120266,-1431.602,5092.7067)"><path
       d="m 8853.41,16300 c 10.27,0 18.54,-8.3 18.54,-18.6 0,-10.2 -8.27,-18.5 -18.54,-18.5 -10.23,0 -18.55,8.3 -18.55,18.5 0,10.3 8.32,18.6 18.55,18.6 v 0"
       style="fill:#56638f;fill-opacity:1;fill-rule:evenodd;stroke:none"
       id="path7586" /></g><g
     id="g7588"
     transform="matrix(0.30078472,0,0,-0.30114799,-1431.602,5092.7067)"><path
       d="m 8854.99,16300 c 8.63,0 15.67,-7 15.67,-15.7 0,-8.6 -7.04,-15.6 -15.67,-15.6 -8.64,0 -15.68,7 -15.68,15.6 0,8.7 7.04,15.7 15.68,15.7 v 0"
       style="fill:#000000;fill-opacity:1;fill-rule:evenodd;stroke:none"
       id="path7590" /></g><g
     id="g7592"
     transform="matrix(0.3120591,0,0,-0.31243599,-1431.602,5092.7067)"><path
       d="M 11206.4,16249.6 H 5863.77 c -619.65,0 -1126.8,-507.2 -1126.8,-1126.8 0,-4391.8 0,-8783.63 0,-13175.44 0,-619.64 507.15,-1126.798 1126.8,-1126.798 h 2467.1 c 30.43,0 61.63,4.653 91.76,8.706 37.46,5.036 74.59,9.602 112.45,9.602 37.89,0 74.98,-4.566 112.44,-9.602 30.13,-4.053 61.33,-8.706 91.76,-8.706 h 2467.12 c 619.6,0 1126.8,507.158 1126.8,1126.798 0,4391.81 0,8783.64 0,13175.44 0,619.6 -507.2,1126.8 -1126.8,1126.8 z m 0,50.4 H 5863.77 c -647.43,0 -1177.2,-529.7 -1177.2,-1177.2 v -196.6 -143.2 h 40.97 v -113.4 h -40.97 V 2400.53 h 40.97 v -113.34 h -40.97 v -137.2 -202.63 c 0,-647.51 529.77,-1177.198 1177.2,-1177.198 h 2467.1 c 63.25,0 131.32,18.309 204.21,18.309 72.88,0 140.95,-18.309 204.2,-18.309 h 2467.12 c 647.4,0 1177.2,529.688 1177.2,1177.198 v 202.63 137.2 h -41 v 113.34 h 41 V 14669.6 h -41 v 113.4 h 41 v 143.2 196.6 c 0,647.5 -529.8,1177.2 -1177.2,1177.2 v 0"
       style="fill:#666666;fill-opacity:1;fill-rule:evenodd;stroke:none"
       id="path7594" /></g><g
     id="g7596"
     transform="matrix(0.28301684,0,0,-0.28335866,-1431.602,5092.7067)"><path
       d="m 13302.8,2521.9 h 306.4 v 124.97 h -306.4 z m 0,13778.1 h 306.4 v -125 h -306.4 z m -7783.71,0 h -306.42 v -125 h 306.42 z m 0,-13778.1 h -306.42 v 124.97 h 306.42 v -124.97 0"
       style="fill:#373737;fill-opacity:1;fill-rule:evenodd;stroke:none"
       id="path7598" /></g><g
     id="g7600"
     transform="matrix(0.3120591,0,0,-0.31243599,-1431.602,5092.7067)"><path
       d="m 11134.3,16300 h 72.1 v 0 c 10.1,0 20.2,-0.1 30.2,-0.4 v 0 c 10.1,-0.2 20.1,-0.6 30.1,-1.1 v 0 c 10,-0.5 20,-1.2 29.9,-1.9 v 0 c 9.9,-0.8 19.8,-1.7 29.7,-2.7 v 0 c 9.9,-1 19.7,-2.1 29.5,-3.4 v 0 c 9.8,-1.2 19.5,-2.6 29.2,-4.1 v 0 c 9.8,-1.5 19.4,-3.1 29,-4.9 v 0 c 9.7,-1.7 19.3,-3.6 28.8,-5.5 v 0 c 9.6,-2 19.1,-4.1 28.6,-6.3 v 0 c 9.5,-2.2 18.9,-4.5 28.3,-6.9 v 0 c 9.4,-2.5 18.7,-5 28,-7.7 v 0 c 9.3,-2.6 18.5,-5.4 27.7,-8.3 v 0 c 9.2,-2.8 18.4,-5.8 27.5,-8.9 v 0 c 9.1,-3.1 18.1,-6.3 27.1,-9.6 v 0 c 9.1,-3.3 18,-6.8 26.9,-10.3 v 0 c 8.9,-3.5 17.7,-7.1 26.6,-10.9 v 0 c 8.8,-3.7 17.5,-7.6 26.2,-11.5 v 0 c 8.7,-3.9 17.3,-8 25.9,-12.1 v 0 c 8.6,-4.2 17.1,-8.4 25.5,-12.8 v 0 c 8.5,-4.3 16.9,-8.8 25.2,-13.3 v 0 c 8.3,-4.6 16.6,-9.2 24.8,-13.9 h 0.1 c 8.2,-4.8 16.3,-9.6 24.4,-14.5 v 0 c 8.1,-5 16.1,-10 24.1,-15.1 v 0 c 8,-5.1 15.9,-10.3 23.7,-15.6 v 0 c 7.8,-5.3 15.6,-10.8 23.3,-16.2 v 0 c 7.7,-5.5 15.3,-11.1 22.8,-16.8 h 0.1 c 7.5,-5.6 15,-11.4 22.4,-17.2 v 0 c 7.5,-5.8 14.8,-11.8 22.1,-17.8 v 0 c 7.3,-6 14.5,-12.1 21.6,-18.3 v 0 c 7.1,-6.1 14.2,-12.4 21.1,-18.7 h 0.1 c 6.9,-6.4 13.8,-12.8 20.6,-19.3 h 0.1 c 6.7,-6.5 13.5,-13.1 20.2,-19.8 v 0 c 6.6,-6.7 13.2,-13.4 19.7,-20.2 v 0 c 6.5,-6.8 13,-13.8 19.3,-20.7 v 0 c 6.3,-7 12.6,-14.1 18.8,-21.2 v 0 c 6.2,-7.1 12.3,-14.3 18.3,-21.6 v 0 c 6,-7.3 11.9,-14.6 17.8,-22 v 0 c 5.8,-7.5 11.6,-15 17.2,-22.5 v 0 c 5.7,-7.6 11.2,-15.2 16.7,-22.9 v 0 c 5.5,-7.7 10.9,-15.5 16.2,-23.3 v 0 c 5.3,-7.8 10.6,-15.7 15.7,-23.7 v 0 c 5.1,-7.9 10.1,-16 15,-24.1 v 0 c 4.9,-8.1 9.8,-16.2 14.6,-24.4 v 0 c 4.7,-8.2 9.3,-16.5 13.9,-24.9 v 0 c 4.5,-8.3 9,-16.7 13.3,-25.2 v 0 c 4.3,-8.4 8.6,-16.9 12.7,-25.5 v 0 c 4.2,-8.6 8.2,-17.2 12.2,-25.9 v 0 c 3.9,-8.7 7.8,-17.4 11.5,-26.2 v 0 c 3.7,-8.8 7.4,-17.6 10.9,-26.5 v 0 c 3.5,-8.9 6.9,-17.9 10.2,-26.9 v 0 c 3.4,-9 6.6,-18.1 9.6,-27.2 h 0.1 c 3.1,-9.1 6.1,-18.2 8.9,-27.4 h 0.1 c 2.8,-9.2 5.6,-18.5 8.2,-27.8 v 0 c 2.7,-9.3 5.2,-18.6 7.7,-28 v 0 c 2.4,-9.4 4.7,-18.8 6.9,-28.3 v 0 c 2.2,-9.5 4.3,-19 6.3,-28.5 v 0 c 1.9,-9.6 3.8,-19.2 5.5,-28.8 v 0 c 1.8,-9.7 3.4,-19.3 4.8,-29 h 0.1 c 1.5,-9.8 2.8,-19.5 4.1,-29.3 v 0 c 1.2,-9.8 2.4,-19.6 3.4,-29.5 v 0 c 1,-9.8 1.9,-19.7 2.6,-29.7 v 0 c 0.8,-9.9 1.4,-19.9 1.9,-29.9 v 0 c 0.6,-10 0.9,-20 1.2,-30 v 0 c 0.3,-10.1 0.4,-20.2 0.4,-30.3 v -196.6 -143.2 h -41 v 0 -113.4 0 h 41 V 2400.53 h -41 v 0 -113.34 0 h 41 v -137.2 -202.63 c 0,-10.11 -0.1,-20.23 -0.4,-30.25 v 0 c -0.3,-10.07 -0.6,-20.1 -1.2,-30.09 v 0 c -0.5,-9.99 -1.1,-19.97 -1.9,-29.92 v 0 c -0.7,-9.9 -1.6,-19.8 -2.6,-29.66 v 0 c -1,-9.85 -2.2,-19.71 -3.4,-29.48 v 0 c -1.3,-9.78 -2.6,-19.55 -4.1,-29.28 h -0.1 c -1.4,-9.69 -3,-19.37 -4.8,-29.02 v 0 c -1.7,-9.64 -3.6,-19.25 -5.5,-28.8 v 0 c -2,-9.52 -4.1,-19.08 -6.3,-28.51 v 0 c -2.2,-9.48 -4.5,-18.91 -6.9,-28.29 v 0 c -2.5,-9.39 -5,-18.74 -7.7,-28.04 v 0 c -2.6,-9.31 -5.4,-18.52 -8.2,-27.74 h -0.1 c -2.8,-9.18 -5.8,-18.35 -8.9,-27.44 h -0.1 c -3,-9.13 -6.2,-18.18 -9.6,-27.19 v 0 c -3.3,-9 -6.7,-17.96 -10.2,-26.84 v 0 c -3.5,-8.92 -7.2,-17.75 -10.9,-26.54 v 0 c -3.7,-8.79 -7.6,-17.54 -11.5,-26.25 v 0 c -4,-8.66 -8,-17.28 -12.2,-25.86 v 0 c -4.1,-8.58 -8.4,-17.11 -12.7,-25.56 v 0 c -4.3,-8.45 -8.8,-16.86 -13.3,-25.18 v 0 c -4.6,-8.37 -9.2,-16.64 -13.9,-24.84 v 0 c -4.8,-8.23 -9.7,-16.39 -14.6,-24.45 v 0 c -4.9,-8.11 -9.9,-16.13 -15,-24.11 v 0 c -5.1,-7.94 -10.4,-15.84 -15.7,-23.69 v 0 c -5.3,-7.81 -10.7,-15.57 -16.2,-23.3 v 0 c -5.5,-7.68 -11,-15.32 -16.7,-22.87 v 0 c -5.6,-7.56 -11.4,-15.07 -17.2,-22.49 v 0 c -5.9,-7.39 -11.8,-14.73 -17.8,-22.02 v 0 c -6,-7.26 -12.1,-14.47 -18.3,-21.6 v 0 c -6.2,-7.12 -12.5,-14.21 -18.8,-21.16 v 0 c -6.3,-6.96 -12.8,-13.87 -19.3,-20.7 v 0 c -6.5,-6.83 -13.1,-13.57 -19.7,-20.23 v 0 c -6.7,-6.7 -13.5,-13.27 -20.2,-19.8 h -0.1 c -6.8,-6.49 -13.7,-12.93 -20.6,-19.25 h -0.1 c -6.9,-6.35 -14,-12.63 -21.1,-18.82 v 0 c -7.1,-6.14 -14.3,-12.24 -21.6,-18.26 v 0 c -7.3,-6.02 -14.6,-11.95 -22.1,-17.75 v 0 c -7.4,-5.85 -14.9,-11.61 -22.4,-17.29 h -0.1 c -7.5,-5.633 -15.1,-11.222 -22.8,-16.727 v 0 c -7.7,-5.462 -15.5,-10.84 -23.3,-16.175 v 0 c -7.8,-5.291 -15.7,-10.497 -23.7,-15.618 v 0 c -8,-5.123 -16,-10.157 -24.1,-15.065 v 0 c -8.1,-4.951 -16.2,-9.772 -24.4,-14.509 h -0.1 c -8.2,-4.738 -16.5,-9.389 -24.8,-13.913 v 0 c -8.3,-4.566 -16.7,-9.004 -25.2,-13.356 v 0 c -8.4,-4.354 -16.9,-8.579 -25.5,-12.718 v 0 c -8.6,-4.182 -17.2,-8.236 -25.9,-12.162 v 0 c -8.7,-3.926 -17.4,-7.767 -26.2,-11.523 v 0 c -8.9,-3.712 -17.7,-7.339 -26.6,-10.882 v 0 c -8.9,-3.542 -17.8,-6.956 -26.9,-10.242 v 0 c -9,-3.329 -18,-6.53 -27.1,-9.645 v 0 c -9.1,-3.072 -18.3,-6.06 -27.5,-8.962 v 0 c -9.2,-2.859 -18.4,-5.633 -27.7,-8.278 v 0 c -9.3,-2.646 -18.6,-5.206 -28,-7.64 v 0 c -9.4,-2.431 -18.8,-4.736 -28.3,-6.955 v 0 c -9.5,-2.177 -19,-4.268 -28.6,-6.231 v 0 c -9.5,-1.964 -19.1,-3.841 -28.8,-5.548 v 0 c -9.6,-1.75 -19.2,-3.371 -29,-4.866 v 0 c -9.7,-1.492 -19.4,-2.859 -29.2,-4.139 v 0 c -9.8,-1.237 -19.6,-2.391 -29.5,-3.371 v 0 c -9.9,-1.025 -19.8,-1.92 -29.7,-2.645 v 0 c -9.9,-0.769 -19.9,-1.409 -29.9,-1.921 v 0 c -10,-0.512 -20,-0.895 -30.1,-1.152 v 0 c -10,-0.256 -20.1,-0.385 -30.2,-0.385 v 0 H 8739.28 c -63.25,0 -131.32,18.309 -204.2,18.309 -72.89,0 -140.96,-18.309 -204.21,-18.309 h -2467.1 v 0 c -10.12,0 -20.19,0.129 -30.26,0.385 v 0 c -10.07,0.257 -20.06,0.64 -30.09,1.152 v 0 c -9.98,0.512 -19.92,1.152 -29.87,1.921 v 0 c -9.94,0.725 -19.84,1.62 -29.7,2.645 v 0 c -9.86,1.024 -19.67,2.134 -29.45,3.371 h -0.04 c -9.77,1.28 -19.5,2.647 -29.23,4.139 v 0 c -9.73,1.495 -19.38,3.116 -29.02,4.866 v 0 c -9.65,1.707 -19.25,3.584 -28.81,5.548 v 0 c -9.56,1.963 -19.07,4.054 -28.55,6.231 v 0 c -9.47,2.219 -18.9,4.524 -28.29,6.955 v 0 c -9.35,2.434 -18.69,4.994 -28,7.64 v 0 c -9.3,2.645 -18.56,5.419 -27.73,8.278 v 0 c -9.22,2.902 -18.36,5.89 -27.49,8.962 v 0 c -9.09,3.115 -18.13,6.316 -27.14,9.645 v 0 c -9,3.286 -17.96,6.7 -26.84,10.242 v 0 c -8.92,3.543 -17.75,7.17 -26.55,10.882 h -0.04 c -8.79,3.756 -17.5,7.597 -26.2,11.523 v 0 c -8.66,3.969 -17.33,7.98 -25.86,12.162 h -0.05 c -8.53,4.139 -17.07,8.364 -25.51,12.718 v 0 c -8.45,4.352 -16.86,8.79 -25.18,13.356 v 0 c -8.37,4.524 -16.65,9.175 -24.84,13.913 v 0 c -8.24,4.737 -16.39,9.558 -24.45,14.509 h -0.05 c -8.06,4.908 -16.08,9.942 -24.06,15.065 v 0 c -7.94,5.121 -15.84,10.327 -23.69,15.618 v 0 c -7.85,5.335 -15.62,10.713 -23.3,16.175 v 0 c -7.68,5.505 -15.32,11.094 -22.88,16.727 v 0 c -7.55,5.68 -15.06,11.44 -22.48,17.29 v 0 c -7.43,5.8 -14.77,11.73 -22.03,17.75 v 0 c -7.29,6.02 -14.46,12.12 -21.59,18.26 h -0.04 c -7.13,6.19 -14.17,12.47 -21.13,18.82 v 0 c -6.99,6.32 -13.91,12.76 -20.69,19.25 v 0 c -6.83,6.53 -13.57,13.1 -20.27,19.8 v 0 c -6.66,6.66 -13.23,13.4 -19.76,20.23 v 0 c -6.49,6.83 -12.93,13.74 -19.29,20.7 v 0 c -6.32,6.95 -12.59,14.04 -18.78,21.16 v 0 c -6.19,7.13 -12.25,14.3 -18.26,21.6 h -0.05 c -5.97,7.29 -11.9,14.63 -17.75,22.02 v 0 c -5.85,7.42 -11.56,14.93 -17.24,22.49 v 0 c -5.68,7.55 -11.22,15.19 -16.73,22.87 v 0 c -5.51,7.73 -10.88,15.49 -16.17,23.3 v 0 c -5.3,7.85 -10.5,15.75 -15.62,23.69 h -0.05 c -5.07,7.98 -10.11,16 -15.06,24.11 v 0 c -4.91,8.06 -9.73,16.22 -14.47,24.45 h -0.04 c -4.74,8.2 -9.35,16.47 -13.91,24.84 v 0 c -4.53,8.32 -8.96,16.73 -13.32,25.18 v 0 c -4.35,8.45 -8.62,16.98 -12.76,25.56 v 0 c -4.14,8.58 -8.19,17.2 -12.12,25.86 v 0 c -3.96,8.71 -7.81,17.46 -11.52,26.25 v 0 c -3.75,8.79 -7.38,17.62 -10.88,26.54 v 0 c -3.54,8.88 -6.96,17.84 -10.29,26.84 v 0 c -3.32,9.01 -6.53,18.06 -9.6,27.19 v 0 c -3.11,9.09 -6.1,18.26 -8.96,27.44 v 0 c -2.9,9.22 -5.63,18.43 -8.32,27.74 v 0 c -2.65,9.3 -5.21,18.65 -7.6,28.04 h -0.04 c -2.43,9.38 -4.74,18.81 -6.91,28.29 v 0 c -2.22,9.43 -4.31,18.99 -6.28,28.51 v 0 c -1.96,9.55 -3.79,19.16 -5.54,28.8 v 0 c -1.75,9.65 -3.33,19.33 -4.83,29.02 h -0.04 c -1.49,9.73 -2.86,19.5 -4.1,29.28 v 0 c -1.28,9.81 -2.39,19.63 -3.41,29.48 v 0 c -0.98,9.86 -1.88,19.76 -2.65,29.66 v 0 c -0.76,9.95 -1.4,19.93 -1.92,29.92 v 0 c -0.51,9.99 -0.89,20.02 -1.15,30.09 v 0 c -0.26,10.02 -0.38,20.14 -0.38,30.25 v 339.83 h 40.97 v 0 113.34 0 h -40.97 v 2731.61 l 50.4,87.32 v -3272.1 c 0,-619.64 507.15,-1126.798 1126.8,-1126.798 h 2467.1 c 30.43,0 61.63,4.653 91.76,8.706 37.46,5.036 74.59,9.602 112.45,9.602 37.89,0 74.98,-4.566 112.44,-9.602 30.13,-4.053 61.33,-8.706 91.76,-8.706 h 2467.12 c 619.6,0 1126.8,507.158 1126.8,1126.798 0,4391.81 0,8783.64 0,13175.44 0,619.6 -507.2,1126.8 -1126.8,1126.8 h -101.2 l 29.1,50.4 v 0"
       style="fill:#4b4b4b;fill-opacity:1;fill-rule:evenodd;stroke:none"
       id="path7602" /></g></svg>
