<?xml version="1.0" encoding="UTF-8" standalone="no"?>
<!-- Created with Inkscape (http://www.inkscape.org/) -->

<svg
   version="1.1"
   id="svg2"
   width="512"
   height="512"
   viewBox="0 0 512 512"
   sodipodi:docname="tu-es-la.png"
   inkscape:export-filename="..\icon svg\tu-es-la.svg"
   inkscape:export-xdpi="96"
   inkscape:export-ydpi="96"
   xmlns:inkscape="http://www.inkscape.org/namespaces/inkscape"
   xmlns:sodipodi="http://sodipodi.sourceforge.net/DTD/sodipodi-0.dtd"
   xmlns="http://www.w3.org/2000/svg"
   xmlns:svg="http://www.w3.org/2000/svg">
  <defs
     id="defs6" />
  <sodipodi:namedview
     id="namedview4"
     pagecolor="#ffffff"
     bordercolor="#999999"
     borderopacity="1"
     inkscape:showpageshadow="0"
     inkscape:pageopacity="0"
     inkscape:pagecheckerboard="0"
     inkscape:deskcolor="#d1d1d1"
     showgrid="false" />
  <g
     inkscape:groupmode="layer"
     inkscape:label="Image"
     id="g8"
     transform="matrix(1.1168288,0,0,1.0842164,-35.748363,-28.069027)">
    <g
       id="g847"
       transform="translate(-4.6308891,-16.413077)">
      <path
         style="fill:#fdd695;stroke-width:0.433212"
         d="m 249.27488,260.7102 c 0.41306,-0.11208 0.98619,-0.10471 1.27361,0.0164 0.28743,0.12109 -0.0505,0.2128 -0.75102,0.20379 -0.70049,-0.009 -0.93565,-0.10809 -0.52259,-0.22017 z m 8.91529,0 c 0.41306,-0.11208 0.98618,-0.10471 1.27361,0.0164 0.28742,0.12109 -0.0505,0.2128 -0.75102,0.20379 -0.70049,-0.009 -0.93566,-0.10809 -0.52259,-0.22017 z m -12.08087,-0.4377 c 0.30646,-0.1277 0.67263,-0.112 0.8137,0.0349 0.14107,0.14689 -0.10967,0.25138 -0.55721,0.23218 -0.49456,-0.0212 -0.59515,-0.12596 -0.25649,-0.26708 z m 15.70789,0 c 0.30646,-0.1277 0.67263,-0.112 0.8137,0.0349 0.14107,0.14689 -0.10968,0.25138 -0.55721,0.23218 -0.49456,-0.0212 -0.59516,-0.12596 -0.25649,-0.26708 z m -82.24716,-45.48851 c 0.0204,-0.51498 0.12097,-0.61973 0.2565,-0.26708 0.12263,0.31911 0.10755,0.70039 -0.0335,0.84729 -0.14107,0.1469 -0.24141,-0.1142 -0.22298,-0.58021 z m 20.3778,-3.09445 c 0.0204,-0.51498 0.12097,-0.61973 0.25649,-0.26708 0.12264,0.31911 0.10756,0.70039 -0.0335,0.84729 -0.14108,0.1469 -0.24141,-0.1142 -0.22298,-0.58021 z m 108.25706,0 c 0.0204,-0.51498 0.12097,-0.61973 0.25649,-0.26708 0.12264,0.31911 0.10756,0.70039 -0.0335,0.84729 -0.14106,0.1469 -0.2414,-0.1142 -0.22297,-0.58021 z m -64.35094,-4.13096 c -1.72513,-0.76637 -2.89597,-2.58464 -2.93474,-4.55755 l -0.037,-1.88419 h 13.37293 13.37294 l -0.0389,1.91079 c -0.0311,1.52683 -0.30983,2.19305 -1.38712,3.31548 l -1.3482,1.40469 -10.0754,0.094 c -5.54145,0.0517 -10.45746,-0.0757 -10.92445,-0.28321 z m -43.90612,-3.38413 c 0.0204,-0.51498 0.12097,-0.61973 0.25649,-0.26708 0.12264,0.31911 0.10756,0.70039 -0.0335,0.84729 -0.14108,0.14689 -0.24141,-0.1142 -0.22298,-0.58021 z m 108.25706,0 c 0.0204,-0.51498 0.12097,-0.61973 0.25649,-0.26708 0.12264,0.31911 0.10756,0.70039 -0.0335,0.84729 -0.14106,0.14689 -0.2414,-0.1142 -0.22297,-0.58021 z M 179.57003,201.08 c 0.0204,-0.51498 0.12097,-0.61973 0.2565,-0.26708 0.12263,0.31911 0.10755,0.70039 -0.0335,0.84729 -0.14107,0.14689 -0.24141,-0.1142 -0.22298,-0.58021 z m 149.01266,0 c 0.0204,-0.51498 0.12097,-0.61973 0.25649,-0.26708 0.12264,0.31911 0.10756,0.70039 -0.0335,0.84729 -0.14107,0.14689 -0.24141,-0.1142 -0.22297,-0.58021 z m -124.423,-46.37991 c 0.5484,-0.60784 1.0926,-1.10516 1.20935,-1.10516 0.11675,0 -0.23641,0.49732 -0.78481,1.10516 -0.5484,0.60784 -1.0926,1.10516 -1.20935,1.10516 -0.11675,0 0.23642,-0.49732 0.78481,-1.10516 z m 102.71522,-1.87877 -1.46303,-1.65774 1.59202,1.52342 c 0.87561,0.83789 1.59201,1.58387 1.59201,1.65774 0,0.33757 -0.35925,0.0196 -1.721,-1.52342 z m -56.52023,-1.29663 c 0.30646,-0.1277 0.67262,-0.11199 0.8137,0.0349 0.14106,0.1469 -0.10968,0.25138 -0.55721,0.23218 -0.49457,-0.0212 -0.59516,-0.12596 -0.25649,-0.26708 z m 7.21713,0 c 0.30646,-0.1277 0.67263,-0.11199 0.8137,0.0349 0.14107,0.1469 -0.10967,0.25138 -0.5572,0.23218 -0.49457,-0.0212 -0.59516,-0.12596 -0.2565,-0.26708 z m -10.1889,-21.21908 c 0.30647,-0.1277 0.67263,-0.112 0.8137,0.0349 0.14107,0.14689 -0.10967,0.25137 -0.5572,0.23218 -0.49457,-0.0212 -0.59516,-0.12596 -0.2565,-0.26708 z m 13.16067,0 c 0.30646,-0.1277 0.67263,-0.112 0.81369,0.0349 0.14107,0.14689 -0.10967,0.25137 -0.5572,0.23218 -0.49457,-0.0212 -0.59516,-0.12596 -0.25649,-0.26708 z"
         id="path861" />
      <path
         style="fill:#fab64c;stroke-width:0.433212"
         d="m 245.76437,260.18474 -1.48589,-0.27336 -0.21226,-25.1264 -0.21227,-25.1264 -1.00224,-0.84487 c -1.39539,-1.17629 -3.27111,-1.07697 -4.53605,0.24019 l -1.04204,1.08507 v 11.7688 11.7688 l -1.24096,1.29219 c -1.35401,1.40991 -1.99408,1.55116 -3.59256,0.79278 -1.87312,-0.88869 -2.01907,-2.0556 -1.87833,-15.01768 0.12407,-11.42612 0.1834,-12.21205 1.04785,-13.88019 1.62255,-3.13108 4.40894,-5.23712 7.63599,-5.77154 l 1.63657,-0.27102 0.0113,2.02994 c 0.009,1.69148 0.24086,2.26894 1.38791,3.46334 l 1.37658,1.43341 h 10.5971 10.59711 l 1.37658,-1.43341 c 1.14705,-1.1944 1.37846,-1.77186 1.38791,-3.46334 l 0.0113,-2.02994 1.63657,0.27102 c 3.22705,0.53442 6.01344,2.64046 7.63599,5.77154 0.86445,1.66814 0.92378,2.45407 1.04785,13.88019 0.14074,12.96208 -0.005,14.12899 -1.87833,15.01768 -1.59848,0.75838 -2.23855,0.61713 -3.59256,-0.79278 l -1.24096,-1.29219 v -11.7688 -11.7688 l -1.04204,-1.08507 c -1.37862,-1.43554 -3.32989,-1.43554 -4.70851,0 l -1.04205,1.08507 v 24.7496 c 0,13.65091 -0.16645,24.85672 -0.37117,24.98847 -0.20415,0.13138 -1.73249,0.37062 -3.3963,0.53164 l -3.02513,0.29276 V 247.798 234.89457 l -1.04204,-1.08507 c -1.37862,-1.43554 -3.32989,-1.43554 -4.70851,0 l -1.04204,1.08507 v 12.83995 12.83996 l -1.80429,-0.0582 c -0.99236,-0.032 -2.47293,-0.18121 -3.29016,-0.33155 z m 5.07346,-66.93784 c -2.44135,-0.71874 -4.43246,-2.00291 -6.43226,-4.14848 -4.90493,-5.26245 -4.74848,-14.01416 0.34534,-19.31828 5.20153,-5.41627 13.85901,-5.43224 19.04215,-0.0351 3.91526,4.0769 5.03458,10.70362 2.65882,15.7411 -1.36009,2.88389 -4.24058,5.83565 -6.88207,7.05234 -2.4089,1.10957 -6.29782,1.42508 -8.73198,0.70845 z"
         id="path859" />
      <path
         style="fill:#5196e8;stroke-width:0.433212"
         d="m 219.6286,246.75997 -1.2469,-1.43671 1.37974,1.29839 c 1.28612,1.21027 1.57489,1.57503 1.24691,1.57503 -0.0731,0 -0.69395,-0.64652 -1.37975,-1.43671 z m 70.28766,-1.43671 c 1.50423,-1.58038 2.83049,-2.87341 2.94724,-2.87341 0.11674,0 -1.01847,1.29303 -2.5227,2.87341 -1.50423,1.58038 -2.83048,2.87342 -2.94723,2.87342 -0.11675,0 1.01846,-1.29304 2.52269,-2.87342 z m -73.25942,-1.65774 -1.2469,-1.43671 1.37974,1.29839 c 1.28612,1.21027 1.57489,1.57503 1.24691,1.57503 -0.0731,0 -0.69395,-0.64652 -1.37975,-1.43671 z M 328.58269,213.4578 c 0.0204,-0.51498 0.12097,-0.61973 0.25649,-0.26708 0.12264,0.31911 0.10756,0.70039 -0.0335,0.84729 -0.14107,0.14689 -0.24141,-0.1142 -0.22297,-0.58021 z m -125.17358,-2.83658 c 0,-0.85097 0.0874,-1.1991 0.19415,-0.77361 0.10678,0.42548 0.10678,1.12173 0,1.54722 -0.10678,0.42549 -0.19415,0.0774 -0.19415,-0.77361 z m 101.47303,-0.22103 c 0.005,-0.97254 0.0917,-1.31835 0.19319,-0.76846 0.10155,0.54989 0.0977,1.3456 -0.009,1.76826 -0.10626,0.42265 -0.18935,-0.0273 -0.18463,-0.9998 z m 0,-4.86271 c 0.005,-0.97254 0.0917,-1.31835 0.19319,-0.76846 0.10155,0.54989 0.0977,1.34561 -0.009,1.76826 -0.10626,0.42265 -0.18935,-0.0273 -0.18463,-0.9998 z m -101.47303,-0.22103 c 0,-0.85098 0.0874,-1.1991 0.19415,-0.77361 0.10678,0.42548 0.10678,1.12173 0,1.54722 -0.10678,0.42549 -0.19415,0.0774 -0.19415,-0.77361 z m -3.46128,-2.46819 c 0.0204,-0.51499 0.12097,-0.61973 0.25649,-0.26708 0.12264,0.31911 0.10756,0.70039 -0.0335,0.84729 -0.14108,0.14689 -0.24141,-0.11421 -0.22298,-0.58021 z m -20.3778,-0.44207 c 0.0204,-0.51498 0.12097,-0.61973 0.2565,-0.26708 0.12263,0.31911 0.10755,0.70039 -0.0335,0.84729 -0.14107,0.1469 -0.24141,-0.1142 -0.22298,-0.58021 z m 149.01266,0 c 0.0204,-0.51498 0.12097,-0.61973 0.25649,-0.26708 0.12264,0.31911 0.10756,0.70039 -0.0335,0.84729 -0.14107,0.1469 -0.24141,-0.1142 -0.22297,-0.58021 z M 215.6222,173.3495 c 0,-0.0761 0.62089,-0.7226 1.37975,-1.43671 l 1.37975,-1.29839 -1.24691,1.43671 c -1.16229,1.33922 -1.51259,1.63991 -1.51259,1.29839 z m 75.75324,-1.29839 -1.24691,-1.43671 1.37975,1.29839 c 0.75886,0.71411 1.37975,1.36063 1.37975,1.43671 0,0.34152 -0.3503,0.0408 -1.51259,-1.29839 z m -72.78147,-1.79606 c 0,-0.0761 0.62088,-0.7226 1.37974,-1.43671 l 1.37975,-1.29839 -1.2469,1.43671 c -1.16229,1.33922 -1.51259,1.63991 -1.51259,1.29839 z m 69.8097,-1.29839 -1.2469,-1.43671 1.37975,1.29839 c 1.28612,1.21027 1.57488,1.57503 1.2469,1.57503 -0.0731,0 -0.69395,-0.64652 -1.37975,-1.43671 z m 4.00566,-1.10516 c -0.52807,-0.70114 -0.51305,-0.71677 0.16029,-0.1669 0.40862,0.33369 0.74294,0.68181 0.74294,0.77361 0,0.36383 -0.34862,0.12966 -0.90323,-0.60671 z m -41.22716,-12.80097 c 0.52808,-0.10574 1.29225,-0.10172 1.69815,0.009 0.40589,0.11065 -0.0262,0.19716 -0.96016,0.19226 -0.93398,-0.005 -1.26608,-0.0954 -0.73799,-0.20118 z m 4.66991,0 c 0.52809,-0.10574 1.29225,-0.10172 1.69815,0.009 0.4059,0.11065 -0.0262,0.19716 -0.96016,0.19226 -0.93398,-0.005 -1.26608,-0.0954 -0.73799,-0.20118 z m -46.95545,-7.20244 c 0,-0.60783 0.0964,-0.8565 0.21414,-0.55258 0.11777,0.30392 0.11777,0.80125 0,1.10516 -0.11777,0.30392 -0.21414,0.0553 -0.21414,-0.55258 z m 39.7599,-17.54248 c 0.30646,-0.1277 0.67262,-0.112 0.8137,0.0349 0.14106,0.14689 -0.10968,0.25137 -0.55721,0.23218 -0.49457,-0.0212 -0.59516,-0.12596 -0.25649,-0.26708 z m 10.61343,0 c 0.30646,-0.1277 0.67263,-0.112 0.8137,0.0349 0.14107,0.14689 -0.10967,0.25137 -0.5572,0.23218 -0.49457,-0.0212 -0.59516,-0.12596 -0.2565,-0.26708 z"
         id="path857" />
      <path
         style="fill:#2279e3;stroke-width:0.433212"
         d="m 231.81547,255.25863 c -18.81259,-9.80673 -29.85238,-30.2198 -28.0477,-51.86147 1.2443,-14.92162 8.67833,-28.70108 20.55745,-38.10456 3.78048,-2.99262 12.0071,-7.05536 16.9815,-8.38637 11.6778,-3.12464 24.23683,-1.85586 34.83405,3.51912 14.76309,7.48792 25.02305,21.44343 28.02361,38.11748 0.89168,4.95506 0.89168,13.89695 0,18.852 -2.37055,13.17306 -9.4754,24.98298 -19.89565,33.07117 -3.21594,2.49622 -11.22465,7.01403 -12.43374,7.01403 -0.49056,0 -0.59838,-1.31047 -0.59838,-7.27323 v -7.27323 l 2.11275,0.26055 c 3.31025,0.40824 5.8002,-0.53574 8.31192,-3.15116 3.15192,-3.28203 3.24292,-3.8572 3.08344,-19.48861 l -0.13518,-13.24861 -1.179,-2.6215 c -2.70958,-6.02473 -5.92685,-8.59863 -13.34571,-10.67691 -0.32797,-0.0919 0.007,-0.95198 0.92246,-2.36848 5.58338,-8.6394 4.4691,-20.01474 -2.65354,-27.08906 -8.15187,-8.09658 -20.0454,-8.09658 -28.19727,0 -7.12264,7.07432 -8.23692,18.44966 -2.65354,27.08906 0.9201,1.4237 1.2521,2.27835 0.92246,2.37462 -0.28324,0.0827 -1.37467,0.39421 -2.4254,0.6922 -4.76841,1.35234 -8.21064,4.36191 -10.49782,9.17832 l -1.60149,3.37251 -0.13518,13.27323 c -0.15946,15.65856 -0.0691,16.23058 3.08344,19.51323 2.51172,2.61542 5.00167,3.5594 8.31192,3.15116 l 2.11275,-0.26055 v 7.27323 c 0,5.96276 -0.10782,7.27323 -0.59838,7.27323 -0.3291,0 -2.516,-0.99963 -4.85977,-2.2214 z"
         id="path855" />
      <path
         style="fill:#e43843;stroke-width:0.433212"
         d="m 248.46157,319.70057 c -9.78871,-20.36335 -10.04574,-20.96653 -10.2421,-24.03545 -0.25617,-4.00386 0.62213,-6.90198 2.91299,-9.61199 2.75008,-3.25324 5.04284,-4.14241 12.69812,-4.92451 16.70577,-1.70677 31.19198,-5.29542 41.11922,-10.18642 3.46376,-1.70654 3.89483,-1.83046 3.36784,-0.96812 -2.58957,4.23736 -10.9486,20.24188 -10.9486,20.9626 0,0.49782 0.40037,1.43513 0.88971,2.0829 1.01876,1.34863 1.0304,1.29713 -1.15897,5.13036 -1.57678,2.76069 -1.70074,2.86822 -3.15989,2.74077 -0.99622,-0.087 -1.8267,0.14112 -2.41387,0.6631 -0.49233,0.43766 -5.32142,8.95183 -10.73132,18.92038 -9.21946,16.98823 -11.07536,20.11392 -11.94279,20.11392 -0.19231,0 -4.86796,-9.39939 -10.39034,-20.88754 z m 57.58712,-68.90487 c -1.22379,-0.50665 -3.3963,-2.55593 -3.3963,-3.20366 0,-0.24157 0.9222,-1.84552 2.04934,-3.56432 4.4882,-6.84419 7.47522,-13.91061 9.31407,-22.03441 1.01315,-4.476 1.12502,-5.82836 1.14182,-13.80344 0.0146,-6.92506 -0.14845,-9.65569 -0.75224,-12.59884 -5.19509,-25.32315 -23.60915,-44.63665 -47.83868,-50.17537 -4.26917,-0.97591 -15.87071,-1.37004 -20.44767,-0.69466 -14.50474,2.14034 -27.70991,9.47211 -37.48006,20.80966 -1.36189,1.58038 -2.71208,3.13998 -3.00041,3.46577 -0.6907,0.78044 -2.61589,-0.21239 -4.19063,-2.16113 -1.23428,-1.52741 -1.25318,-1.45902 1.31241,-4.74784 1.88248,-2.41315 2.21875,-3.80382 1.33536,-5.52259 -0.44124,-0.85849 -0.2111,-1.21886 2.37732,-3.72265 2.70355,-2.61517 2.91688,-2.73493 3.76702,-2.11488 1.60995,1.17421 3.27556,0.78248 6.63653,-1.56081 6.77963,-4.72681 15.83478,-8.6499 23.9057,-10.357 27.20016,-5.75316 55.16302,6.60547 70.46196,31.14178 12.72334,20.40558 14.2171,47.40322 3.81629,68.97432 -3.41355,7.07964 -6.52932,12.3679 -7.26909,12.33748 -0.37477,-0.0154 -1.159,-0.22575 -1.74274,-0.46741 z"
         id="path853" />
      <path
         style="fill:#c02a34;stroke-width:0.433212"
         d="m 250.62377,341.24563 c -1.15495,-0.6109 -2.40709,-1.55582 -2.78252,-2.0998 -0.37544,-0.54399 -12.0989,-21.96682 -26.05213,-47.60629 -13.95323,-25.63946 -25.85852,-47.42218 -26.45619,-48.40603 -3.06228,-5.04093 -6.31424,-14.22552 -7.82441,-22.09864 -1.33947,-6.98321 -1.34151,-19.13862 -0.004,-26.10813 1.71273,-8.92728 4.76942,-17.05498 9.14347,-24.31234 2.06849,-3.43201 4.68528,-7.20264 3.93754,-5.67375 -0.3318,0.67843 1.64579,3.09551 3.23109,3.94915 1.0409,0.56049 1.36834,0.57654 1.93032,0.0946 0.37223,-0.3192 -0.098,0.48766 -1.045,1.79301 -9.45509,13.03337 -13.60183,32.36954 -10.51811,49.04582 2.52429,13.65097 9.61068,26.55295 19.57673,35.64279 8.26552,7.53881 17.72117,12.44514 28.74019,14.91265 6.19209,1.3866 17.31745,1.3866 23.50953,0 8.50137,-1.90373 15.25148,-4.87872 22.52537,-9.92768 4.16987,-2.89439 10.41057,-8.78175 13.1854,-12.43885 0.74725,-0.98484 1.22161,-1.36405 1.09986,-0.87925 -0.29089,1.15827 1.80478,3.19077 3.97929,3.85933 l 1.7047,0.52412 -4.58206,8.39711 c -2.52013,4.61842 -4.78058,8.62458 -5.02322,8.90259 -0.24264,0.27801 -0.30937,0.65803 -0.14828,0.84449 0.16108,0.18645 0.0759,0.20992 -0.18939,0.0522 -0.26525,-0.15777 -2.08638,0.4959 -4.04695,1.45258 -9.6208,4.69459 -24.29976,8.28939 -40.68402,9.96331 -7.65528,0.7821 -9.94803,1.67127 -12.69812,4.92451 -2.28938,2.70826 -3.16867,5.60773 -2.9149,9.61199 0.19474,3.07271 0.4421,3.65207 10.35373,24.25005 l 10.15424,21.10213 -1.60699,0.66953 c -2.29014,0.95416 -4.08761,0.83206 -6.49477,-0.4412 z m 29.95267,-38.84195 c 0,-0.0918 0.33432,-0.43992 0.74294,-0.77361 0.67334,-0.54987 0.68836,-0.53424 0.16029,0.1669 -0.55461,0.73637 -0.90323,0.97055 -0.90323,0.60671 z m 6.87536,-11.5478 c 0.009,-0.7294 0.1038,-0.97428 0.21144,-0.54417 0.10764,0.43012 0.10056,1.02691 -0.0157,1.3262 -0.1163,0.29929 -0.20436,-0.0526 -0.19571,-0.78203 z m -71.88375,-42.99075 c -0.52807,-0.70114 -0.51305,-0.71677 0.16029,-0.1669 0.40862,0.33369 0.74294,0.68181 0.74294,0.77361 0,0.36384 -0.34863,0.12966 -0.90323,-0.60671 z m 76.4709,0.60671 c 0,-0.0918 0.33432,-0.43992 0.74294,-0.77361 0.67334,-0.54987 0.68836,-0.53424 0.16029,0.1669 -0.5546,0.73637 -0.90323,0.97055 -0.90323,0.60671 z m 28.47753,-26.17276 c 0.0204,-0.51498 0.12097,-0.61973 0.25649,-0.26708 0.12263,0.31912 0.10755,0.7004 -0.0335,0.84729 -0.14107,0.1469 -0.24141,-0.1142 -0.22297,-0.58021 z m 0.42454,-2.21032 c 0.0204,-0.51498 0.12096,-0.61973 0.25649,-0.26708 0.12263,0.31911 0.10755,0.70039 -0.0335,0.84729 -0.14107,0.1469 -0.24141,-0.1142 -0.22298,-0.58021 z m -6.36807,-2.65238 c 0.0204,-0.51498 0.12097,-0.61973 0.25649,-0.26708 0.12264,0.31911 0.10756,0.70039 -0.0335,0.84729 -0.14107,0.14689 -0.24141,-0.11421 -0.22298,-0.58021 z m 6.82612,-0.1842 c 0,-0.60784 0.0964,-0.8565 0.21413,-0.55258 0.11777,0.30392 0.11777,0.80124 0,1.10516 -0.11777,0.30392 -0.21413,0.0553 -0.21413,-0.55258 z m -6.35233,-3.75754 c 0.009,-0.72941 0.1038,-0.97429 0.21143,-0.54417 0.10764,0.43011 0.10057,1.0269 -0.0158,1.32619 -0.11629,0.29929 -0.20436,-0.0526 -0.1957,-0.78202 z m 6.81689,-1.3262 c 0.005,-0.97254 0.0917,-1.31834 0.1932,-0.76845 0.10155,0.54988 0.0977,1.3456 -0.009,1.76825 -0.10626,0.42266 -0.18935,-0.0273 -0.18463,-0.9998 z m 0.0143,-7.95715 c 0.003,-1.21568 0.0856,-1.66053 0.18322,-0.98857 0.0976,0.67197 0.095,1.66661 -0.006,2.21032 -0.10077,0.54371 -0.18061,-0.006 -0.17743,-1.22175 z m -6.81551,-1.98929 c 0,-0.85098 0.0874,-1.1991 0.19415,-0.77361 0.10678,0.42548 0.10678,1.12173 0,1.54722 -0.10678,0.42549 -0.19415,0.0774 -0.19415,-0.77361 z m 6.30308,-3.35232 c 0.0204,-0.51498 0.12097,-0.61973 0.25649,-0.26708 0.12264,0.31911 0.10756,0.70039 -0.0335,0.84729 -0.14107,0.14689 -0.24141,-0.1142 -0.22298,-0.58021 z m -6.7926,-0.44207 c 0.0204,-0.51498 0.12097,-0.61973 0.25649,-0.26708 0.12264,0.31912 0.10756,0.7004 -0.0335,0.84729 -0.14107,0.1469 -0.24141,-0.1142 -0.22298,-0.58021 z m -0.42453,-2.65238 c 0.0204,-0.51498 0.12096,-0.61973 0.25649,-0.26708 0.12263,0.31911 0.10755,0.70039 -0.0335,0.84729 -0.14107,0.14689 -0.24141,-0.1142 -0.22298,-0.58021 z m 6.36806,-2.21032 c 0.0204,-0.51498 0.12097,-0.61973 0.25649,-0.26708 0.12263,0.31911 0.10755,0.70039 -0.0335,0.84729 -0.14107,0.14689 -0.24141,-0.11421 -0.22297,-0.58021 z m -76.05786,-4.05226 -1.02921,-1.21568 1.16748,1.0717 c 1.09118,1.00167 1.36216,1.35966 1.02921,1.35966 -0.0761,0 -0.60141,-0.54706 -1.16748,-1.21568 z m 19.13632,0.11052 c 0.5484,-0.60784 1.0926,-1.10516 1.20935,-1.10516 0.11675,0 -0.23642,0.49732 -0.78481,1.10516 -0.5484,0.60784 -1.09261,1.10516 -1.20935,1.10516 -0.11675,0 0.23641,-0.49732 0.78481,-1.10516 z m -56.25122,-22.76631 c 0.42263,-0.48627 0.86393,-0.88413 0.98068,-0.88413 0.11674,0 -0.13352,0.39786 -0.55614,0.88413 -0.42262,0.48627 -0.86392,0.88413 -0.98067,0.88413 -0.11675,0 0.13351,-0.39786 0.55613,-0.88413 z m 93.35791,-0.11052 -0.80874,-0.99464 0.95521,0.84212 c 0.89766,0.7914 1.14848,1.14717 0.80874,1.14717 -0.0806,0 -0.5104,-0.44759 -0.95521,-0.99465 z m 6.99105,-1.98929 c -0.52807,-0.70114 -0.51305,-0.71677 0.16029,-0.1669 0.70718,0.5775 0.93207,0.94051 0.58265,0.94051 -0.0881,0 -0.42247,-0.34812 -0.74294,-0.77361 z m -105.86794,-1.87877 c 0.42262,-0.48627 0.86392,-0.88413 0.98067,-0.88413 0.11675,0 -0.13351,0.39786 -0.55614,0.88413 -0.42262,0.48627 -0.86392,0.88413 -0.98067,0.88413 -0.11675,0 0.13351,-0.39786 0.55614,-0.88413 z m 95.67904,0.11052 c -0.52807,-0.70114 -0.51305,-0.71678 0.16029,-0.16691 0.70718,0.5775 0.93207,0.94052 0.58265,0.94052 -0.0881,0 -0.42247,-0.34813 -0.74294,-0.77361 z m -86.97603,0.16464 c 0,-0.0918 0.33433,-0.43992 0.74295,-0.77361 0.67334,-0.54987 0.68835,-0.53424 0.16028,0.1669 -0.5546,0.73637 -0.90323,0.97054 -0.90323,0.60671 z m 95.46678,-0.60671 c -0.52807,-0.70114 -0.51305,-0.71677 0.16029,-0.1669 0.40862,0.33369 0.74294,0.68181 0.74294,0.77361 0,0.36383 -0.34862,0.12966 -0.90323,-0.60671 z m -91.43367,-3.20496 c 0.42262,-0.48628 0.86393,-0.88413 0.98067,-0.88413 0.11675,0 -0.13351,0.39785 -0.55613,0.88413 -0.42262,0.48627 -0.86393,0.88412 -0.98068,0.88412 -0.11674,0 0.13352,-0.39785 0.55614,-0.88412 z m 78.92364,-0.11052 -0.80874,-0.99465 0.95521,0.84213 c 0.89766,0.79139 1.14847,1.14716 0.80874,1.14716 -0.0806,0 -0.51041,-0.44759 -0.95521,-0.99464 z m 8.51512,-1.32619 -2.10673,-2.32084 2.22883,2.1937 c 2.07106,2.03843 2.42351,2.44797 2.10672,2.44797 -0.0671,0 -1.07012,-1.04437 -2.22882,-2.32083 z m -85.52834,-0.0564 c 0,-0.0918 0.33432,-0.43992 0.74294,-0.77361 0.67334,-0.54987 0.68836,-0.53424 0.16029,0.1669 -0.5546,0.73637 -0.90323,0.97054 -0.90323,0.60671 z m 81.0325,-4.14322 c -0.52807,-0.70114 -0.51305,-0.71678 0.16029,-0.16691 0.70718,0.5775 0.93207,0.94052 0.58265,0.94052 -0.0881,0 -0.42247,-0.34813 -0.74294,-0.77361 z m -55.21532,-8.36966 c 0.30647,-0.1277 0.67263,-0.11199 0.8137,0.0349 0.14107,0.1469 -0.10967,0.25138 -0.5572,0.23218 -0.49457,-0.0212 -0.59516,-0.12596 -0.2565,-0.26708 z m 23.34957,0 c 0.30646,-0.1277 0.67262,-0.11199 0.81369,0.0349 0.14107,0.1469 -0.10967,0.25138 -0.5572,0.23218 -0.49457,-0.0212 -0.59516,-0.12596 -0.25649,-0.26708 z m -20.80234,-0.44206 c 0.30646,-0.1277 0.67262,-0.112 0.8137,0.0349 0.14107,0.14689 -0.10968,0.25138 -0.55721,0.23218 -0.49456,-0.0212 -0.59516,-0.12596 -0.25649,-0.26708 z m 18.25511,0 c 0.30646,-0.1277 0.67263,-0.112 0.8137,0.0349 0.14107,0.14689 -0.10968,0.25138 -0.55721,0.23218 -0.49456,-0.0212 -0.59515,-0.12596 -0.25649,-0.26708 z m -15.09761,-0.44481 c 0.40861,-0.11119 1.07726,-0.11119 1.48588,0 0.40862,0.11119 0.0743,0.20216 -0.74294,0.20216 -0.81724,0 -1.15156,-0.091 -0.74294,-0.20216 z m 11.03797,0 c 0.40862,-0.11119 1.07727,-0.11119 1.48588,0 0.40862,0.11119 0.0743,0.20216 -0.74294,0.20216 -0.81723,0 -1.15156,-0.091 -0.74294,-0.20216 z m 8.72955,-5.74409 c 0.30646,-0.1277 0.67263,-0.112 0.8137,0.0349 0.14107,0.14689 -0.10967,0.25138 -0.5572,0.23218 -0.49457,-0.0212 -0.59516,-0.12596 -0.2565,-0.26708 z m -25.47225,-0.44207 c 0.30647,-0.12769 0.67263,-0.11199 0.8137,0.0349 0.14107,0.14689 -0.10967,0.25137 -0.5572,0.23218 -0.49457,-0.0212 -0.59516,-0.12597 -0.2565,-0.26708 z m 23.34957,0 c 0.30646,-0.12769 0.67262,-0.11199 0.81369,0.0349 0.14107,0.14689 -0.10967,0.25137 -0.5572,0.23218 -0.49457,-0.0212 -0.59516,-0.12597 -0.25649,-0.26708 z m -20.82887,-0.43285 c 0.29187,-0.12263 0.76947,-0.12263 1.06134,0 0.29187,0.12263 0.0531,0.22297 -0.53067,0.22297 -0.58374,0 -0.82254,-0.10034 -0.53067,-0.22297 z m 17.8571,-0.009 c 0.30646,-0.1277 0.67263,-0.11199 0.8137,0.0349 0.14107,0.1469 -0.10967,0.25138 -0.5572,0.23218 -0.49457,-0.0212 -0.59516,-0.12596 -0.2565,-0.26708 z m -13.39362,-0.4573 c 0.64532,-0.10161 1.60053,-0.0989 2.12268,0.006 0.52216,0.10492 -0.006,0.18806 -1.17331,0.18474 -1.16748,-0.003 -1.5947,-0.0892 -0.94937,-0.19078 z m 7.64167,0 c 0.64532,-0.10161 1.60053,-0.0989 2.12269,0.006 0.52215,0.10492 -0.006,0.18806 -1.17332,0.18474 -1.16747,-0.003 -1.59469,-0.0892 -0.94937,-0.19078 z"
         id="path851" />
      <path
         style="fill:#222121;stroke-width:0.433212"
         d="m 250.33916,348.80193 c -2.80367,-0.84055 -5.52901,-2.59842 -7.19251,-4.63925 -0.77847,-0.95503 -12.10437,-21.39638 -25.16867,-45.42521 -13.0643,-24.02884 -24.98769,-45.86937 -26.49642,-48.53451 -7.26806,-12.83886 -10.41136,-22.70782 -11.58612,-36.37678 -1.64282,-19.11503 4.45851,-39.38113 16.55953,-55.0039 1.8919,-2.44251 2.98716,-3.47504 3.91003,-3.68611 2.1824,-0.49912 4.58333,1.82371 4.04686,3.91522 -0.13451,0.52441 -1.4042,2.44544 -2.82153,4.26895 -7.03387,9.04967 -11.81816,19.78458 -14.08621,31.6064 -1.33711,6.96951 -1.33507,19.12492 0.004,26.10813 1.51017,7.87312 4.76213,17.05771 7.8244,22.09864 0.59768,0.98385 12.50296,22.76657 26.45619,48.40603 13.95324,25.63947 25.67669,47.0623 26.05213,47.60629 0.9609,1.39227 4.59334,3.21054 6.41387,3.21054 1.97812,0 5.65994,-1.91552 6.62566,-3.4471 0.41427,-0.65701 5.01824,-9.05227 10.23103,-18.65612 5.21279,-9.60384 9.9631,-17.90912 10.55624,-18.45618 0.59314,-0.54705 1.55407,-0.99464 2.1354,-0.99464 1.39264,0 3.14106,1.86096 3.14106,3.34324 0,0.71388 -3.94701,8.46147 -10.08276,19.79149 -11.23808,20.75173 -12.36282,22.35983 -16.88853,24.14638 -3.1143,1.2294 -6.97062,1.51699 -9.63405,0.71849 z m 38.30349,-55.51469 c -1.63497,-1.70248 -1.16393,-3.06692 4.94077,-14.31176 9.58073,-17.64766 14.75046,-27.12234 18.486,-33.87963 7.57464,-13.70196 10.58381,-25.77114 9.97319,-40.00043 -0.78411,-18.272 -7.52214,-34.28382 -19.8128,-47.08189 -13.61574,-14.17787 -31.3776,-21.3964 -50.73419,-20.6187 -12.60166,0.50629 -23.73194,4.17243 -34.29065,11.2948 -2.19737,1.48224 -4.38187,2.69498 -4.85443,2.69498 -0.47257,0 -1.36257,-0.4123 -1.9778,-0.91622 -1.4809,-1.21296 -1.56328,-3.80894 -0.16339,-5.14844 3.11274,-2.97844 13.70285,-8.7744 20.0594,-10.97849 23.50006,-8.14849 49.15783,-3.82438 68.86704,11.60617 25.39941,19.88546 35.92128,54.83566 25.99136,86.33474 -1.57592,4.99905 -4.66319,11.92083 -7.55069,16.92899 -1.15016,1.99485 -7.01082,12.67635 -13.0237,23.73667 -6.01288,11.06032 -11.24054,20.35392 -11.61702,20.65244 -1.07068,0.84897 -3.33567,0.68371 -4.29309,-0.31323 z m -41.60467,-22.11053 c -7.10509,-1.03086 -13.79379,-3.17422 -20.09067,-6.43795 -17.02173,-8.82251 -29.04098,-25.34939 -32.84058,-45.15694 -1.0333,-5.38665 -1.0333,-17.83932 0,-23.22597 4.96682,-25.89234 23.36115,-45.22486 48.30921,-50.77319 6.25702,-1.39154 17.36966,-1.40357 23.55813,-0.0255 25.25307,5.62339 43.41273,24.81434 48.40608,51.15509 1.03656,5.46802 1.03656,17.04518 0,22.5132 -4.93411,26.02822 -23.45442,45.6752 -48.1535,51.08291 -4.72606,1.03474 -14.87614,1.49408 -19.18867,0.86837 z m 3.82084,-20.96994 c 0,-9.72087 0.15463,-14.69968 0.4796,-15.44237 0.26379,-0.60284 1.02796,-1.33259 1.69815,-1.62166 1.56509,-0.67504 3.45449,0.0659 4.13524,1.62166 0.32502,0.74279 0.4796,5.72665 0.4796,15.4624 v 14.36632 l 1.37975,-0.22162 c 0.75886,-0.12189 2.2872,-0.34202 3.3963,-0.48918 l 2.01655,-0.26757 v -26.25493 c 0,-18.57157 0.14036,-26.5757 0.47961,-27.35102 1.07429,-2.45514 4.7591,-2.45514 5.83339,0 0.31716,0.72484 0.4796,4.98882 0.4796,12.58905 v 11.49296 l 1.04205,1.08507 c 1.38856,1.44588 3.32961,1.43582 4.73206,-0.0245 l 1.06561,-1.1096 -0.12969,-12.92594 c -0.14255,-14.20768 -0.14044,-14.19532 -2.92184,-17.09155 -2.87653,-2.99527 -2.24889,-2.90741 -20.76969,-2.90741 -18.52079,0 -17.89315,-0.0879 -20.76968,2.90742 -2.7814,2.89623 -2.77929,2.88387 -2.92184,17.09155 l -0.12969,12.92594 1.06561,1.1096 c 1.40245,1.46035 3.3435,1.47041 4.73206,0.0245 l 1.04205,-1.08508 v -11.49296 c 0,-7.60023 0.16244,-11.86421 0.4796,-12.58905 1.07429,-2.45514 4.7591,-2.45514 5.83339,0 0.33925,0.77532 0.47961,8.77945 0.47961,27.35102 v 26.25493 l 1.80428,0.24222 c 0.99236,0.13322 2.28189,0.31724 2.86563,0.40895 0.58374,0.0917 1.30014,0.19383 1.59201,0.22694 0.41483,0.0471 0.53068,-3.07166 0.53068,-14.28609 z m -13.5852,2.21035 v -9.48355 l -2.11275,0.26055 c -3.31025,0.40824 -5.8002,-0.53574 -8.31192,-3.15116 -3.15251,-3.28265 -3.2429,-3.85467 -3.08344,-19.51323 l 0.13518,-13.27323 1.60149,-3.37251 c 2.28718,-4.81641 5.72941,-7.82598 10.49782,-9.17832 1.05073,-0.29799 2.14216,-0.60948 2.4254,-0.6922 0.32964,-0.0963 -0.003,-0.95092 -0.92246,-2.37462 -5.58338,-8.6394 -4.4691,-20.01474 2.65354,-27.08906 8.15187,-8.09658 20.0454,-8.09658 28.19727,0 7.12264,7.07432 8.23692,18.44966 2.65354,27.08906 -0.91545,1.4165 -1.25043,2.2766 -0.92246,2.36848 7.41886,2.07828 10.63613,4.65218 13.34571,10.67691 l 1.179,2.6215 0.13518,13.24861 c 0.15948,15.63141 0.0685,16.20658 -3.08344,19.48861 -2.51172,2.61542 -5.00167,3.5594 -8.31192,3.15116 l -2.11275,-0.26055 v 9.4507 9.4507 l 2.56992,-1.04872 c 16.22499,-6.62103 28.69524,-21.244 33.16687,-38.89239 1.27638,-5.03758 1.34531,-5.72783 1.36856,-13.70399 0.0225,-7.72733 -0.068,-8.78132 -1.13184,-13.17575 -4.74003,-19.58018 -18.25408,-34.85299 -36.18577,-40.89511 -6.22851,-2.0987 -9.09936,-2.51511 -17.19377,-2.4939 -6.61799,0.0173 -7.9304,0.14982 -12.01655,1.21301 -20.39027,5.30541 -35.40877,20.94393 -40.50382,42.176 -1.02104,4.25485 -1.14827,5.62144 -1.16493,12.51265 -0.0203,8.38355 0.38268,11.43002 2.34731,17.7471 5.23799,16.84224 18.20738,30.52709 34.67489,36.58774 0.0584,0.0215 0.10614,-4.22854 0.10614,-9.44449 z m 22.74616,-59.93738 c 2.64118,-1.33135 5.24547,-4.04566 6.56917,-6.84668 0.85688,-1.81322 1.03837,-2.85771 1.03495,-5.95634 -0.005,-4.57288 -0.91134,-6.94441 -3.80552,-9.95808 -2.89716,-3.01677 -5.17192,-3.95831 -9.56327,-3.95831 -4.39134,0 -6.6661,0.94154 -9.56326,3.95831 -4.63096,4.82215 -5.31215,12.02514 -1.68063,17.77135 1.58608,2.50967 4.46145,4.80953 7.16676,5.73232 2.59339,0.88462 7.32146,0.52788 9.8418,-0.74257 z"
         id="path849" />
    </g>
  </g>
</svg>
